<svg id="morning_tea" data-name="morning tea" xmlns="http://www.w3.org/2000/svg" viewBox="0 0 96.25 105"><defs><style>.cls-1{fill:#fff;}</style></defs><title>AfternoonTea</title><path id="Afternoon_tea" data-name="Afternoon tea" class="cls-1" d="M54.75,84.7a42.42,42.42,0,0,0,40.38-42A22.1,22.1,0,0,0,69.62,7.86,22.07,22.07,0,0,0,38.51,5.19,20.79,20.79,0,0,0,35.74,8,22.12,22.12,0,0,0,10.38,43.16,42.39,42.39,0,0,0,50.72,84.7V101H12.35v4H93.12v-4H54.75Zm-41-69.41a18.21,18.21,0,0,1,21.56-3l1.58.84L38,11.69A18.24,18.24,0,0,1,52.75,4a18,18,0,0,1,14.67,7.53l1,1.43L70,12.15A18.09,18.09,0,0,1,91.84,40.38H13.29A18.17,18.17,0,0,1,13.78,15.29Zm.64,29.15H91.06a38.37,38.37,0,0,1-76.64,0Z" transform="translate(-4.46 0)"/></svg>