<svg id="morning_tea" data-name="morning tea" xmlns="http://www.w3.org/2000/svg" viewBox="0 0 96.3 105"><defs><style>.cls-1{fill:#fff;}</style></defs><title>Breakfast</title><path id="Breakfast" class="cls-1" d="M94.61,12.41A21.86,21.86,0,0,0,79,6a22.32,22.32,0,0,0-9,1.89A22.07,22.07,0,0,0,38.91,5.19,21.32,21.32,0,0,0,36.15,8a22.52,22.52,0,0,0-9.24-2,21.86,21.86,0,0,0-15.58,6.43,22.24,22.24,0,0,0-.6,30.82L10.56,105H95.38l-.17-61.77A22.24,22.24,0,0,0,94.61,12.41ZM14.18,15.27a18.45,18.45,0,0,1,21.57-3l1.58.86,1-1.46A18.17,18.17,0,0,1,53.19,4a18,18,0,0,1,14.67,7.53l1,1.42,1.55-.83a18.54,18.54,0,0,1,21.37,3.1,18.19,18.19,0,0,1,.49,25.12H13.7A18.14,18.14,0,0,1,14.18,15.27ZM14.61,101l.16-56.49H91.18L91.33,101Z" transform="translate(-4.82 0)"/></svg>