<svg id="morning_tea" data-name="morning tea" xmlns="http://www.w3.org/2000/svg" viewBox="0 0 104.5 104.5"><defs><style>.cls-1{fill:#fff;}</style></defs><title>dinner</title><g id="Dinner"><path id="Path_123" data-name="Path 123" class="cls-1" d="M52.5,0a52.25,52.25,0,1,0,52.25,52.25A52.24,52.24,0,0,0,52.5,0Zm0,101.13a48.88,48.88,0,1,1,48.88-48.89h0A49,49,0,0,1,52.5,101.13Z" transform="translate(-0.26 0)"/><path id="Path_124" data-name="Path 124" class="cls-1" d="M82.59,33.94A15.41,15.41,0,0,1,71.1,22.38a19.06,19.06,0,0,0-37.16-.1A15.59,15.59,0,0,1,22.27,34.07,18.72,18.72,0,0,0,7.53,52.46a19.09,19.09,0,0,0,15,18.61A15.51,15.51,0,0,1,34,82.73a19,19,0,0,0,37.1-.23A15.42,15.42,0,0,1,82.7,71a19,19,0,0,0-.12-37.07Zm-.67,33.7a18.88,18.88,0,0,0-14.14,14.1A15.56,15.56,0,0,1,37.43,82,19,19,0,0,0,23.33,67.7,15.63,15.63,0,0,1,11,52.43a15.14,15.14,0,0,1,12.06-15A19,19,0,0,0,37.31,23.05a15.59,15.59,0,0,1,30.41.11A18.84,18.84,0,0,0,81.84,37.31a15.55,15.55,0,0,1,.08,30.33Z" transform="translate(-0.26 0)"/><path id="Path_125" data-name="Path 125" class="cls-1" d="M52.5,36.33A15.93,15.93,0,1,0,68.42,52.26h0A15.93,15.93,0,0,0,52.51,36.33Zm0,28.94a13,13,0,1,1,13-13h0A13,13,0,0,1,52.5,65.27Z" transform="translate(-0.26 0)"/><path id="Path_126" data-name="Path 126" class="cls-1" d="M21.87,24.52A2.91,2.91,0,1,0,19,21.61a2.9,2.9,0,0,0,2.9,2.91Z" transform="translate(-0.26 0)"/><path id="Path_127" data-name="Path 127" class="cls-1" d="M83.14,24.52a2.91,2.91,0,1,0-2.9-2.91h0A2.92,2.92,0,0,0,83.14,24.52Z" transform="translate(-0.26 0)"/><path id="Path_128" data-name="Path 128" class="cls-1" d="M21.87,80a2.9,2.9,0,1,0,2.9,2.91v0h0A2.91,2.91,0,0,0,21.87,80Z" transform="translate(-0.26 0)"/><path id="Path_129" data-name="Path 129" class="cls-1" d="M83.14,80A2.9,2.9,0,1,0,86,82.89h0A2.89,2.89,0,0,0,83.15,80Z" transform="translate(-0.26 0)"/></g></svg>