<svg id="Layer_1" data-name="Layer 1" xmlns="http://www.w3.org/2000/svg" viewBox="0 0 105 71.4"><defs><style>.cls-1{fill:#fff;}</style></defs><title>Lunch</title><g id="Group_143" data-name="Group 143"><path id="Path_118" data-name="Path 118" class="cls-1" d="M52.5,16a35.65,35.65,0,1,0,.14,0Zm0,67.74a32.24,32.24,0,1,1,.16,0Z" transform="translate(0 -15.91)"/><path id="Path_119" data-name="Path 119" class="cls-1" d="M52.5,32.8A18.79,18.79,0,1,0,71,51.92v-.33A18.63,18.63,0,0,0,52.5,32.8ZM52.5,67A15.37,15.37,0,1,1,67.6,51.31v.28A15.27,15.27,0,0,1,52.5,67Z" transform="translate(0 -15.91)"/><path id="Path_120" data-name="Path 120" class="cls-1" d="M20.13,17.77a1.68,1.68,0,1,0-3.35-.26,1.13,1.13,0,0,0,0,.26,6.81,6.81,0,0,1-5,6.53V17.77a1.68,1.68,0,1,0-3.35-.26,1.13,1.13,0,0,0,0,.26V24.3a6.81,6.81,0,0,1-5-6.53A1.68,1.68,0,1,0,0,17.41a1.7,1.7,0,0,0,0,.22v.14a10.13,10.13,0,0,0,8.39,10V85.51a1.68,1.68,0,0,0,3.35,0V27.71A10.11,10.11,0,0,0,20.13,17.77Z" transform="translate(0 -15.91)"/><path id="Path_121" data-name="Path 121" class="cls-1" d="M94.93,16a1.69,1.69,0,0,0-1.68,1.71v0h0V85.5a1.68,1.68,0,1,0,3.35.26,1.13,1.13,0,0,0,0-.26V53.12a10.13,10.13,0,0,0,8.39-10V26.19A10.12,10.12,0,0,0,94.93,16Zm6.72,27.09a6.81,6.81,0,0,1-5,6.54v-30a6.81,6.81,0,0,1,5,6.54Z" transform="translate(0 -15.91)"/></g></svg>