<svg id="Layer_1" data-name="Layer 1" xmlns="http://www.w3.org/2000/svg" viewBox="0 0 105.13 105"><defs><style>.cls-1{fill:#fff;}.cls-2{fill:none;}</style></defs><title>MorningTea</title><g id="morning_tea" data-name="morning tea"><g id="morning_tea-2" data-name="morning tea"><path id="Path_117" data-name="Path 117" class="cls-1" d="M51.52,62.08a36.59,36.59,0,0,0,30.9-16.86h12.4A10.11,10.11,0,0,0,95.37,25H15.15v1.69C15.15,46.21,31.46,62.08,51.52,62.08ZM94.82,28.4a6.74,6.74,0,1,1,.65,13.46h-.29a2.16,2.16,0,0,1-.36,0H84.31A34.15,34.15,0,0,0,87.78,28.4Zm-10.44,0c-.91,16.86-15.3,30.27-32.85,30.27S19.58,45.23,18.68,28.4Z" transform="translate(0 0)"/><rect id="Rectangle_190" data-name="Rectangle 190" class="cls-1" y="76.85" width="103.49" height="3.37"/></g><rect class="cls-2" width="4" height="3"/><rect class="cls-2" x="101" y="100" width="4" height="5"/></g></svg>