<svg id="morning_tea" data-name="morning tea" xmlns="http://www.w3.org/2000/svg" viewBox="0 0 104.71 104.76"><defs><style>.cls-1{fill:#fff;}</style></defs><title>Supper</title><path id="supper" class="cls-1" d="M104.71,102.08,53.22,24.85a18.31,18.31,0,0,0,1.11-6.26A18.61,18.61,0,0,0,35.75,0a18.26,18.26,0,0,0-8.47,2.11A18.19,18.19,0,0,0,18.82,0,18.62,18.62,0,0,0,.29,18.6,18,18,0,0,0,2.4,27.07,18.23,18.23,0,0,0,.29,35.54,18.56,18.56,0,0,0,25.14,53l77.23,51.48a1.65,1.65,0,0,0,.93.29,1.69,1.69,0,0,0,1.41-2.64ZM18.87,50.68a15.22,15.22,0,0,1-15.2-15.2,14.94,14.94,0,0,1,2.11-7.59,1.74,1.74,0,0,0,0-1.71,14.91,14.91,0,0,1-2.11-7.59,15.22,15.22,0,0,1,15.2-15.2,15,15,0,0,1,7.6,2.11,1.65,1.65,0,0,0,1.69,0,15,15,0,0,1,7.6-2.11,15.19,15.19,0,0,1,14,21.18,1.71,1.71,0,0,0,.21,1.7c3.35,4.35,1.23,12.51-4.82,18.55-4,4-9,6.39-13.38,6.39a8.41,8.41,0,0,1-5.18-1.54,1.61,1.61,0,0,0-1-.35,1.65,1.65,0,0,0-.66.13A15,15,0,0,1,18.87,50.68Zm14.67,3.85A26.2,26.2,0,0,0,54.75,33.28L97.22,96.94Z" transform="translate(-0.29 -0.01)"/></svg>